<svg width="25" height="25" viewBox="0 0 25 25" fill="none" xmlns="http://www.w3.org/2000/svg">
<g id="HeartOutline">
<path id="Vector" opacity="0.6" d="M4.47011 7.04625C4.05224 7.46411 3.72077 7.96019 3.49462 8.50616C3.26847 9.05213 3.15207 9.6373 3.15207 10.2282C3.15207 10.8192 3.26847 11.4044 3.49462 11.9503C3.72077 12.4963 4.05224 12.9924 4.47011 13.4102L12.1521 21.0922L19.8341 13.4102C20.678 12.5663 21.1521 11.4217 21.1521 10.2282C21.1521 9.03477 20.678 7.89017 19.8341 7.04625C18.9902 6.20233 17.8456 5.72822 16.6521 5.72822C15.4586 5.72822 14.314 6.20233 13.4701 7.04625L12.1521 8.36425L10.8341 7.04625C10.4162 6.62838 9.92016 6.29691 9.3742 6.07076C8.82823 5.84461 8.24306 5.72821 7.65211 5.72821C7.06116 5.72821 6.47599 5.84461 5.93002 6.07076C5.38405 6.29691 4.88797 6.62838 4.47011 7.04625Z" stroke="white" stroke-width="2" stroke-linecap="round" stroke-linejoin="round"/>
</g>
</svg>
